<svg xmlns="http://www.w3.org/2000/svg" version="1.1" xmlns:xlink="http://www.w3.org/1999/xlink" xmlns:svgjs="http://svgjs.dev/svgjs" width="308.7612359841165" height="304.915625" viewBox="0 0 2000 2000"><g transform="matrix(1,0,0,1,-0.28443113772425477,-0.28443113772459583)"><svg viewBox="0 0 334 334" data-background-color="#35185a" preserveAspectRatio="xMidYMid meet" height="2000" width="2000" xmlns="http://www.w3.org/2000/svg" xmlns:xlink="http://www.w3.org/1999/xlink"><g id="tight-bounds" transform="matrix(1,0,0,1,0.04749999999998522,0.04750000000001364)"><svg viewBox="0 0 333.90454557049503 333.90454557049503" height="333.90454557049503" width="333.90454557049503"><g><svg></svg></g><g><svg viewBox="0 0 333.90454557049503 333.90454557049503" height="333.90454557049503" width="333.90454557049503"><g><path d="M0 166.952c0-92.205 74.747-166.952 166.952-166.952 92.205 0 166.952 74.747 166.953 166.952 0 92.205-74.747 166.952-166.953 166.953-92.205 0-166.952-74.747-166.952-166.953zM166.952 324.194c86.842 0 157.242-70.4 157.242-157.242 0-86.842-70.4-157.242-157.242-157.242-86.842 0-157.242 70.4-157.242 157.242 0 86.842 70.4 157.242 157.242 157.242z" data-fill-palette-color="tertiary" fill="#a437db" stroke="transparent"></path><ellipse rx="160.27418187383762" ry="160.27418187383762" cx="166.95227278524752" cy="166.95227278524752" fill="#a437db" stroke="transparent" stroke-width="0" fill-opacity="1" data-fill-palette-color="tertiary"></ellipse></g><g transform="matrix(1,0,0,1,117.59444422734197,71.17305217166896)"><svg viewBox="0 0 98.71565711581111 191.55844122715712" height="191.55844122715712" width="98.71565711581111"><g><svg viewBox="0 0 98.71565711581111 191.55844122715712" height="191.55844122715712" width="98.71565711581111"><g><svg viewBox="0 0 175.618541738182 340.78904085585344" height="191.55844122715712" width="98.71565711581111"><g transform="matrix(1,0,0,1,0,149.23059962869632)"><svg viewBox="0 0 175.618541738182 191.55844122715712" height="191.55844122715712" width="175.618541738182"><g id="textblocktransform"><svg viewBox="0 0 175.618541738182 191.55844122715712" height="191.55844122715712" width="175.618541738182" id="textblock"><g><svg viewBox="0 0 175.618541738182 191.55844122715712" height="191.55844122715712" width="175.618541738182"><g transform="matrix(1,0,0,1,0,0)"><svg width="175.618541738182" viewBox="2.15 -34.25 31.4 34.25" height="191.55844122715712" data-palette-color="#80318d"><path d="M17.9-26.1L17.9-26.1Q15.75-26.1 14.73-24.85 13.7-23.6 13.7-20.4L13.7-20.4 13.7-14.5 22-14.5 22-20.5Q22-22.6 21.5-23.88 21-25.15 20.13-25.63 19.25-26.1 17.9-26.1ZM22-4.95L22-7.6 13.7-7.6 13.7-4.95Q13.7-2.4 12.35-1.2 11 0 7.7 0L7.7 0Q6.3 0 5.4-0.4 4.5-0.8 3.83-1.75 3.15-2.7 2.83-4.53 2.5-6.35 2.33-8.93 2.15-11.5 2.15-15.45L2.15-15.45Q2.15-18.9 2.88-21.78 3.6-24.65 4.83-26.65 6.05-28.65 7.6-30.18 9.15-31.7 10.98-32.55 12.8-33.4 14.53-33.83 16.25-34.25 18-34.25L18-34.25Q20.1-34.25 22.15-33.68 24.2-33.1 26.3-31.7 28.4-30.3 29.98-28.23 31.55-26.15 32.55-22.85 33.55-19.55 33.55-15.45L33.55-15.45Q33.55-8.85 33.08-5.68 32.6-2.5 31.48-1.25 30.35 0 28 0L28 0Q24.7 0 23.35-1.2 22-2.4 22-4.95L22-4.95Z" opacity="1" transform="matrix(1,0,0,1,0,0)" fill="#80318d" class="wordmark-text-0" data-fill-palette-color="quaternary" id="text-0"></path></svg></g></svg></g></svg></g></svg></g><g transform="matrix(1,0,0,1,33.54314147199276,0)"><svg viewBox="0 0 108.53225879419647 104.00824905755397" height="104.00824905755397" width="108.53225879419647"><g><svg xmlns="http://www.w3.org/2000/svg" xmlns:xlink="http://www.w3.org/1999/xlink" version="1.1" x="0" y="0" viewBox="0.00025000000000043737 0.5008843362408458 23.999499999999998 22.999115663759156" style="enable-background:new 0 0 24 24;" xml:space="preserve" height="104.00824905755397" width="108.53225879419647" class="icon-icon-0" data-fill-palette-color="quaternary" id="icon-0"><g fill="#80318d" data-fill-palette-color="quaternary"><g fill="#80318d" data-fill-palette-color="quaternary"><path d="M7.5 23.5c-0.063 0-0.127-0.012-0.189-0.037-0.255-0.104-0.378-0.396-0.273-0.652l9-22c0.105-0.255 0.399-0.377 0.652-0.273 0.255 0.104 0.378 0.396 0.273 0.652l-9 22C7.884 23.383 7.697 23.5 7.5 23.5z" fill="#80318d" data-fill-palette-color="quaternary"></path></g><g fill="#80318d" data-fill-palette-color="quaternary"><path d="M17.5 19.5c-0.115 0-0.231-0.04-0.325-0.121-0.21-0.18-0.234-0.495-0.054-0.705L22.841 12l-5.721-6.675c-0.18-0.209-0.156-0.525 0.054-0.705 0.21-0.18 0.525-0.156 0.705 0.054l6 7c0.161 0.187 0.161 0.463 0 0.65l-6 7C17.781 19.441 17.641 19.5 17.5 19.5z" fill="#80318d" data-fill-palette-color="quaternary"></path></g><g fill="#80318d" data-fill-palette-color="quaternary"><path d="M6.5 19.5c-0.141 0-0.281-0.059-0.379-0.175l-6-7c-0.161-0.187-0.161-0.463 0-0.65l6-7c0.18-0.21 0.496-0.234 0.705-0.054C7.035 4.8 7.06 5.116 6.879 5.325L1.159 12l5.721 6.675c0.18 0.209 0.156 0.525-0.054 0.705C6.731 19.46 6.615 19.5 6.5 19.5z" fill="#80318d" data-fill-palette-color="quaternary"></path></g></g></svg></g></svg></g><g></g></svg></g></svg></g></svg></g></svg></g><defs></defs></svg><rect width="333.90454557049503" height="333.90454557049503" fill="none" stroke="none" visibility="hidden"></rect></g></svg></g></svg>